<?xml version="1.0" encoding="utf-8" standalone="no"?>
<!DOCTYPE svg PUBLIC "-//W3C//DTD SVG 1.1//EN"
  "http://www.w3.org/Graphics/SVG/1.1/DTD/svg11.dtd">
<svg xmlns:xlink="http://www.w3.org/1999/xlink" width="770.4pt" height="432.864pt" viewBox="0 0 770.4 432.864" xmlns="http://www.w3.org/2000/svg" version="1.1">
 <metadata>
  <rdf:RDF xmlns:dc="http://purl.org/dc/elements/1.1/" xmlns:cc="http://creativecommons.org/ns#" xmlns:rdf="http://www.w3.org/1999/02/22-rdf-syntax-ns#">
   <cc:Work>
    <dc:type rdf:resource="http://purl.org/dc/dcmitype/StillImage"/>
    <dc:date>2026-05-10T06:48:02.584200</dc:date>
    <dc:format>image/svg+xml</dc:format>
    <dc:creator>
     <cc:Agent>
      <dc:title>Matplotlib v3.9.4, https://matplotlib.org/</dc:title>
     </cc:Agent>
    </dc:creator>
   </cc:Work>
  </rdf:RDF>
 </metadata>
 <defs>
  <style type="text/css">*{stroke-linejoin: round; stroke-linecap: butt}</style>
 </defs>
 <g id="figure_1">
  <g id="patch_1">
   <path d="M 0 432.864 
L 770.4 432.864 
L 770.4 0 
L 0 0 
z
" style="fill: #ffffff"/>
  </g>
  <g id="axes_1">
   <g id="patch_2">
    <path d="M 58.790534 335.897069 
L 218.337466 335.897069 
Q 233.515066 335.897069 233.515066 321.852269 
L 233.515066 103.989331 
Q 233.515066 89.944531 218.337466 89.944531 
L 58.790534 89.944531 
Q 43.612934 89.944531 43.612934 103.989331 
L 43.612934 321.852269 
Q 43.612934 335.897069 58.790534 335.897069 
z
" clip-path="url(#p9966ce8197)" style="fill: #ffffff; stroke: #009e73; stroke-width: 1.5; stroke-linejoin: miter"/>
   </g>
   <g id="patch_3">
    <path d="M 104.4144 196.76928 
C 106.829488 196.76928 109.145985 195.881371 110.85371 194.301104 
C 112.561435 192.720837 113.52096 190.577235 113.52096 188.3424 
C 113.52096 186.107565 112.561435 183.963963 110.85371 182.383696 
C 109.145985 180.803429 106.829488 179.91552 104.4144 179.91552 
C 101.999312 179.91552 99.682815 180.803429 97.97509 182.383696 
C 96.267365 183.963963 95.30784 186.107565 95.30784 188.3424 
C 95.30784 190.577235 96.267365 192.720837 97.97509 194.301104 
C 99.682815 195.881371 101.999312 196.76928 104.4144 196.76928 
z
" clip-path="url(#p9966ce8197)" style="fill: #0072b2; stroke: #ffffff; stroke-linejoin: miter"/>
   </g>
   <g id="patch_4">
    <path d="M 119.592 196.06704 
L 125.66304 196.06704 
L 125.66304 190.44912 
L 119.592 190.44912 
z
" clip-path="url(#p9966ce8197)" style="fill: #e8f3ee; stroke: #009e73; stroke-width: 0.5; stroke-linejoin: miter"/>
   </g>
   <g id="patch_5">
    <path d="M 128.69856 188.3424 
L 134.7696 188.3424 
L 134.7696 182.72448 
L 128.69856 182.72448 
z
" clip-path="url(#p9966ce8197)" style="fill: #e8f3ee; stroke: #009e73; stroke-width: 0.5; stroke-linejoin: miter"/>
   </g>
   <g id="patch_6">
    <path d="M 137.80512 196.06704 
L 143.87616 196.06704 
L 143.87616 190.44912 
L 137.80512 190.44912 
z
" clip-path="url(#p9966ce8197)" style="fill: #e8f3ee; stroke: #009e73; stroke-width: 0.5; stroke-linejoin: miter"/>
   </g>
   <g id="patch_7">
    <path d="M 146.91168 188.3424 
L 152.98272 188.3424 
L 152.98272 182.72448 
L 146.91168 182.72448 
z
" clip-path="url(#p9966ce8197)" style="fill: #e8f3ee; stroke: #009e73; stroke-width: 0.5; stroke-linejoin: miter"/>
   </g>
   <g id="patch_8">
    <path d="M 156.01824 196.06704 
L 162.08928 196.06704 
L 162.08928 190.44912 
L 156.01824 190.44912 
z
" clip-path="url(#p9966ce8197)" style="fill: #e8f3ee; stroke: #009e73; stroke-width: 0.5; stroke-linejoin: miter"/>
   </g>
   <g id="patch_9">
    <path d="M 157.536 245.92608 
C 159.951088 245.92608 162.267585 245.038171 163.97531 243.457904 
C 165.683035 241.877637 166.64256 239.734035 166.64256 237.4992 
C 166.64256 235.264365 165.683035 233.120763 163.97531 231.540496 
C 162.267585 229.960229 159.951088 229.07232 157.536 229.07232 
C 155.120912 229.07232 152.804415 229.960229 151.09669 231.540496 
C 149.388965 233.120763 148.42944 235.264365 148.42944 237.4992 
C 148.42944 239.734035 149.388965 241.877637 151.09669 243.457904 
C 152.804415 245.038171 155.120912 245.92608 157.536 245.92608 
z
" clip-path="url(#p9966ce8197)" style="fill: #009e73; stroke: #ffffff; stroke-linejoin: miter"/>
   </g>
   <g id="patch_10">
    <path d="M 172.7136 245.22384 
L 178.78464 245.22384 
L 178.78464 239.60592 
L 172.7136 239.60592 
z
" clip-path="url(#p9966ce8197)" style="fill: #e8f3ee; stroke: #009e73; stroke-width: 0.5; stroke-linejoin: miter"/>
   </g>
   <g id="patch_11">
    <path d="M 181.82016 237.4992 
L 187.8912 237.4992 
L 187.8912 231.88128 
L 181.82016 231.88128 
z
" clip-path="url(#p9966ce8197)" style="fill: #e8f3ee; stroke: #009e73; stroke-width: 0.5; stroke-linejoin: miter"/>
   </g>
   <g id="patch_12">
    <path d="M 190.92672 245.22384 
L 196.99776 245.22384 
L 196.99776 239.60592 
L 190.92672 239.60592 
z
" clip-path="url(#p9966ce8197)" style="fill: #e8f3ee; stroke: #009e73; stroke-width: 0.5; stroke-linejoin: miter"/>
   </g>
   <g id="patch_13">
    <path d="M 200.03328 237.4992 
L 206.10432 237.4992 
L 206.10432 231.88128 
L 200.03328 231.88128 
z
" clip-path="url(#p9966ce8197)" style="fill: #e8f3ee; stroke: #009e73; stroke-width: 0.5; stroke-linejoin: miter"/>
   </g>
   <g id="patch_14">
    <path d="M 209.13984 245.22384 
L 215.21088 245.22384 
L 215.21088 239.60592 
L 209.13984 239.60592 
z
" clip-path="url(#p9966ce8197)" style="fill: #e8f3ee; stroke: #009e73; stroke-width: 0.5; stroke-linejoin: miter"/>
   </g>
   <g id="patch_15">
    <path d="M 119.592 295.08288 
C 122.007088 295.08288 124.323585 294.194971 126.03131 292.614704 
C 127.739035 291.034437 128.69856 288.890835 128.69856 286.656 
C 128.69856 284.421165 127.739035 282.277563 126.03131 280.697296 
C 124.323585 279.117029 122.007088 278.22912 119.592 278.22912 
C 117.176912 278.22912 114.860415 279.117029 113.15269 280.697296 
C 111.444965 282.277563 110.48544 284.421165 110.48544 286.656 
C 110.48544 288.890835 111.444965 291.034437 113.15269 292.614704 
C 114.860415 294.194971 117.176912 295.08288 119.592 295.08288 
z
" clip-path="url(#p9966ce8197)" style="fill: #cc79a7; stroke: #ffffff; stroke-linejoin: miter"/>
   </g>
   <g id="patch_16">
    <path d="M 134.7696 294.38064 
L 140.84064 294.38064 
L 140.84064 288.76272 
L 134.7696 288.76272 
z
" clip-path="url(#p9966ce8197)" style="fill: #e8f3ee; stroke: #009e73; stroke-width: 0.5; stroke-linejoin: miter"/>
   </g>
   <g id="patch_17">
    <path d="M 143.87616 286.656 
L 149.9472 286.656 
L 149.9472 281.03808 
L 143.87616 281.03808 
z
" clip-path="url(#p9966ce8197)" style="fill: #e8f3ee; stroke: #009e73; stroke-width: 0.5; stroke-linejoin: miter"/>
   </g>
   <g id="patch_18">
    <path d="M 152.98272 294.38064 
L 159.05376 294.38064 
L 159.05376 288.76272 
L 152.98272 288.76272 
z
" clip-path="url(#p9966ce8197)" style="fill: #e8f3ee; stroke: #009e73; stroke-width: 0.5; stroke-linejoin: miter"/>
   </g>
   <g id="patch_19">
    <path d="M 162.08928 286.656 
L 168.16032 286.656 
L 168.16032 281.03808 
L 162.08928 281.03808 
z
" clip-path="url(#p9966ce8197)" style="fill: #e8f3ee; stroke: #009e73; stroke-width: 0.5; stroke-linejoin: miter"/>
   </g>
   <g id="patch_20">
    <path d="M 171.19584 294.38064 
L 177.26688 294.38064 
L 177.26688 288.76272 
L 171.19584 288.76272 
z
" clip-path="url(#p9966ce8197)" style="fill: #e8f3ee; stroke: #009e73; stroke-width: 0.5; stroke-linejoin: miter"/>
   </g>
   <g id="patch_21">
    <path d="M 309.220934 335.897069 
L 468.767866 335.897069 
Q 483.945466 335.897069 483.945466 321.852269 
L 483.945466 103.989331 
Q 483.945466 89.944531 468.767866 89.944531 
L 309.220934 89.944531 
Q 294.043334 89.944531 294.043334 103.989331 
L 294.043334 321.852269 
Q 294.043334 335.897069 309.220934 335.897069 
z
" clip-path="url(#p9966ce8197)" style="fill: #ffffff; stroke: #d55e00; stroke-width: 1.5; stroke-linejoin: miter"/>
   </g>
   <g id="patch_22">
    <path d="M 324.4896 272.6112 
L 335.8728 272.6112 
L 335.8728 262.0776 
L 324.4896 262.0776 
z
" clip-path="url(#p9966ce8197)" style="fill: #009e73; stroke: #ffffff; stroke-width: 0.45; stroke-linejoin: miter"/>
   </g>
   <g id="patch_23">
    <path d="M 324.4896 258.5664 
L 335.8728 258.5664 
L 335.8728 248.0328 
L 324.4896 248.0328 
z
" clip-path="url(#p9966ce8197)" style="fill: #eceff1; stroke: #ffffff; stroke-width: 0.45; stroke-linejoin: miter"/>
   </g>
   <g id="patch_24">
    <path d="M 324.4896 244.5216 
L 335.8728 244.5216 
L 335.8728 233.988 
L 324.4896 233.988 
z
" clip-path="url(#p9966ce8197)" style="fill: #eceff1; stroke: #ffffff; stroke-width: 0.45; stroke-linejoin: miter"/>
   </g>
   <g id="patch_25">
    <path d="M 324.4896 230.4768 
L 335.8728 230.4768 
L 335.8728 219.9432 
L 324.4896 219.9432 
z
" clip-path="url(#p9966ce8197)" style="fill: #eceff1; stroke: #ffffff; stroke-width: 0.45; stroke-linejoin: miter"/>
   </g>
   <g id="patch_26">
    <path d="M 324.4896 216.432 
L 335.8728 216.432 
L 335.8728 205.8984 
L 324.4896 205.8984 
z
" clip-path="url(#p9966ce8197)" style="fill: #eceff1; stroke: #ffffff; stroke-width: 0.45; stroke-linejoin: miter"/>
   </g>
   <g id="patch_27">
    <path d="M 324.4896 202.3872 
L 335.8728 202.3872 
L 335.8728 191.8536 
L 324.4896 191.8536 
z
" clip-path="url(#p9966ce8197)" style="fill: #009e73; stroke: #ffffff; stroke-width: 0.45; stroke-linejoin: miter"/>
   </g>
   <g id="patch_28">
    <path d="M 324.4896 188.3424 
L 335.8728 188.3424 
L 335.8728 177.8088 
L 324.4896 177.8088 
z
" clip-path="url(#p9966ce8197)" style="fill: #eceff1; stroke: #ffffff; stroke-width: 0.45; stroke-linejoin: miter"/>
   </g>
   <g id="patch_29">
    <path d="M 339.6672 272.6112 
L 351.0504 272.6112 
L 351.0504 262.0776 
L 339.6672 262.0776 
z
" clip-path="url(#p9966ce8197)" style="fill: #eceff1; stroke: #ffffff; stroke-width: 0.45; stroke-linejoin: miter"/>
   </g>
   <g id="patch_30">
    <path d="M 339.6672 258.5664 
L 351.0504 258.5664 
L 351.0504 248.0328 
L 339.6672 248.0328 
z
" clip-path="url(#p9966ce8197)" style="fill: #eceff1; stroke: #ffffff; stroke-width: 0.45; stroke-linejoin: miter"/>
   </g>
   <g id="patch_31">
    <path d="M 339.6672 244.5216 
L 351.0504 244.5216 
L 351.0504 233.988 
L 339.6672 233.988 
z
" clip-path="url(#p9966ce8197)" style="fill: #eceff1; stroke: #ffffff; stroke-width: 0.45; stroke-linejoin: miter"/>
   </g>
   <g id="patch_32">
    <path d="M 339.6672 230.4768 
L 351.0504 230.4768 
L 351.0504 219.9432 
L 339.6672 219.9432 
z
" clip-path="url(#p9966ce8197)" style="fill: #eceff1; stroke: #ffffff; stroke-width: 0.45; stroke-linejoin: miter"/>
   </g>
   <g id="patch_33">
    <path d="M 339.6672 216.432 
L 351.0504 216.432 
L 351.0504 205.8984 
L 339.6672 205.8984 
z
" clip-path="url(#p9966ce8197)" style="fill: #009e73; stroke: #ffffff; stroke-width: 0.45; stroke-linejoin: miter"/>
   </g>
   <g id="patch_34">
    <path d="M 339.6672 202.3872 
L 351.0504 202.3872 
L 351.0504 191.8536 
L 339.6672 191.8536 
z
" clip-path="url(#p9966ce8197)" style="fill: #eceff1; stroke: #ffffff; stroke-width: 0.45; stroke-linejoin: miter"/>
   </g>
   <g id="patch_35">
    <path d="M 339.6672 188.3424 
L 351.0504 188.3424 
L 351.0504 177.8088 
L 339.6672 177.8088 
z
" clip-path="url(#p9966ce8197)" style="fill: #eceff1; stroke: #ffffff; stroke-width: 0.45; stroke-linejoin: miter"/>
   </g>
   <g id="patch_36">
    <path d="M 354.8448 272.6112 
L 366.228 272.6112 
L 366.228 262.0776 
L 354.8448 262.0776 
z
" clip-path="url(#p9966ce8197)" style="fill: #eceff1; stroke: #ffffff; stroke-width: 0.45; stroke-linejoin: miter"/>
   </g>
   <g id="patch_37">
    <path d="M 354.8448 258.5664 
L 366.228 258.5664 
L 366.228 248.0328 
L 354.8448 248.0328 
z
" clip-path="url(#p9966ce8197)" style="fill: #eceff1; stroke: #ffffff; stroke-width: 0.45; stroke-linejoin: miter"/>
   </g>
   <g id="patch_38">
    <path d="M 354.8448 244.5216 
L 366.228 244.5216 
L 366.228 233.988 
L 354.8448 233.988 
z
" clip-path="url(#p9966ce8197)" style="fill: #d55e00; stroke: #ffffff; stroke-width: 0.45; stroke-linejoin: miter"/>
   </g>
   <g id="patch_39">
    <path d="M 354.8448 230.4768 
L 366.228 230.4768 
L 366.228 219.9432 
L 354.8448 219.9432 
z
" clip-path="url(#p9966ce8197)" style="fill: #d55e00; stroke: #ffffff; stroke-width: 0.45; stroke-linejoin: miter"/>
   </g>
   <g id="patch_40">
    <path d="M 354.8448 216.432 
L 366.228 216.432 
L 366.228 205.8984 
L 354.8448 205.8984 
z
" clip-path="url(#p9966ce8197)" style="fill: #eceff1; stroke: #ffffff; stroke-width: 0.45; stroke-linejoin: miter"/>
   </g>
   <g id="patch_41">
    <path d="M 354.8448 202.3872 
L 366.228 202.3872 
L 366.228 191.8536 
L 354.8448 191.8536 
z
" clip-path="url(#p9966ce8197)" style="fill: #eceff1; stroke: #ffffff; stroke-width: 0.45; stroke-linejoin: miter"/>
   </g>
   <g id="patch_42">
    <path d="M 354.8448 188.3424 
L 366.228 188.3424 
L 366.228 177.8088 
L 354.8448 177.8088 
z
" clip-path="url(#p9966ce8197)" style="fill: #eceff1; stroke: #ffffff; stroke-width: 0.45; stroke-linejoin: miter"/>
   </g>
   <g id="patch_43">
    <path d="M 370.0224 272.6112 
L 381.4056 272.6112 
L 381.4056 262.0776 
L 370.0224 262.0776 
z
" clip-path="url(#p9966ce8197)" style="fill: #eceff1; stroke: #ffffff; stroke-width: 0.45; stroke-linejoin: miter"/>
   </g>
   <g id="patch_44">
    <path d="M 370.0224 258.5664 
L 381.4056 258.5664 
L 381.4056 248.0328 
L 370.0224 248.0328 
z
" clip-path="url(#p9966ce8197)" style="fill: #eceff1; stroke: #ffffff; stroke-width: 0.45; stroke-linejoin: miter"/>
   </g>
   <g id="patch_45">
    <path d="M 370.0224 244.5216 
L 381.4056 244.5216 
L 381.4056 233.988 
L 370.0224 233.988 
z
" clip-path="url(#p9966ce8197)" style="fill: #d55e00; stroke: #ffffff; stroke-width: 0.45; stroke-linejoin: miter"/>
   </g>
   <g id="patch_46">
    <path d="M 370.0224 230.4768 
L 381.4056 230.4768 
L 381.4056 219.9432 
L 370.0224 219.9432 
z
" clip-path="url(#p9966ce8197)" style="fill: #eceff1; stroke: #ffffff; stroke-width: 0.45; stroke-linejoin: miter"/>
   </g>
   <g id="patch_47">
    <path d="M 370.0224 216.432 
L 381.4056 216.432 
L 381.4056 205.8984 
L 370.0224 205.8984 
z
" clip-path="url(#p9966ce8197)" style="fill: #eceff1; stroke: #ffffff; stroke-width: 0.45; stroke-linejoin: miter"/>
   </g>
   <g id="patch_48">
    <path d="M 370.0224 202.3872 
L 381.4056 202.3872 
L 381.4056 191.8536 
L 370.0224 191.8536 
z
" clip-path="url(#p9966ce8197)" style="fill: #eceff1; stroke: #ffffff; stroke-width: 0.45; stroke-linejoin: miter"/>
   </g>
   <g id="patch_49">
    <path d="M 370.0224 188.3424 
L 381.4056 188.3424 
L 381.4056 177.8088 
L 370.0224 177.8088 
z
" clip-path="url(#p9966ce8197)" style="fill: #eceff1; stroke: #ffffff; stroke-width: 0.45; stroke-linejoin: miter"/>
   </g>
   <g id="patch_50">
    <path d="M 385.2 272.6112 
L 396.5832 272.6112 
L 396.5832 262.0776 
L 385.2 262.0776 
z
" clip-path="url(#p9966ce8197)" style="fill: #eceff1; stroke: #ffffff; stroke-width: 0.45; stroke-linejoin: miter"/>
   </g>
   <g id="patch_51">
    <path d="M 385.2 258.5664 
L 396.5832 258.5664 
L 396.5832 248.0328 
L 385.2 248.0328 
z
" clip-path="url(#p9966ce8197)" style="fill: #009e73; stroke: #ffffff; stroke-width: 0.45; stroke-linejoin: miter"/>
   </g>
   <g id="patch_52">
    <path d="M 385.2 244.5216 
L 396.5832 244.5216 
L 396.5832 233.988 
L 385.2 233.988 
z
" clip-path="url(#p9966ce8197)" style="fill: #eceff1; stroke: #ffffff; stroke-width: 0.45; stroke-linejoin: miter"/>
   </g>
   <g id="patch_53">
    <path d="M 385.2 230.4768 
L 396.5832 230.4768 
L 396.5832 219.9432 
L 385.2 219.9432 
z
" clip-path="url(#p9966ce8197)" style="fill: #c85a4a; stroke: #ffffff; stroke-width: 0.45; stroke-linejoin: miter"/>
   </g>
   <g id="patch_54">
    <path d="M 385.2 216.432 
L 396.5832 216.432 
L 396.5832 205.8984 
L 385.2 205.8984 
z
" clip-path="url(#p9966ce8197)" style="fill: #c85a4a; stroke: #ffffff; stroke-width: 0.45; stroke-linejoin: miter"/>
   </g>
   <g id="patch_55">
    <path d="M 385.2 202.3872 
L 396.5832 202.3872 
L 396.5832 191.8536 
L 385.2 191.8536 
z
" clip-path="url(#p9966ce8197)" style="fill: #eceff1; stroke: #ffffff; stroke-width: 0.45; stroke-linejoin: miter"/>
   </g>
   <g id="patch_56">
    <path d="M 385.2 188.3424 
L 396.5832 188.3424 
L 396.5832 177.8088 
L 385.2 177.8088 
z
" clip-path="url(#p9966ce8197)" style="fill: #009e73; stroke: #ffffff; stroke-width: 0.45; stroke-linejoin: miter"/>
   </g>
   <g id="patch_57">
    <path d="M 400.3776 272.6112 
L 411.7608 272.6112 
L 411.7608 262.0776 
L 400.3776 262.0776 
z
" clip-path="url(#p9966ce8197)" style="fill: #009e73; stroke: #ffffff; stroke-width: 0.45; stroke-linejoin: miter"/>
   </g>
   <g id="patch_58">
    <path d="M 400.3776 258.5664 
L 411.7608 258.5664 
L 411.7608 248.0328 
L 400.3776 248.0328 
z
" clip-path="url(#p9966ce8197)" style="fill: #eceff1; stroke: #ffffff; stroke-width: 0.45; stroke-linejoin: miter"/>
   </g>
   <g id="patch_59">
    <path d="M 400.3776 244.5216 
L 411.7608 244.5216 
L 411.7608 233.988 
L 400.3776 233.988 
z
" clip-path="url(#p9966ce8197)" style="fill: #eceff1; stroke: #ffffff; stroke-width: 0.45; stroke-linejoin: miter"/>
   </g>
   <g id="patch_60">
    <path d="M 400.3776 230.4768 
L 411.7608 230.4768 
L 411.7608 219.9432 
L 400.3776 219.9432 
z
" clip-path="url(#p9966ce8197)" style="fill: #c85a4a; stroke: #ffffff; stroke-width: 0.45; stroke-linejoin: miter"/>
   </g>
   <g id="patch_61">
    <path d="M 400.3776 216.432 
L 411.7608 216.432 
L 411.7608 205.8984 
L 400.3776 205.8984 
z
" clip-path="url(#p9966ce8197)" style="fill: #eceff1; stroke: #ffffff; stroke-width: 0.45; stroke-linejoin: miter"/>
   </g>
   <g id="patch_62">
    <path d="M 400.3776 202.3872 
L 411.7608 202.3872 
L 411.7608 191.8536 
L 400.3776 191.8536 
z
" clip-path="url(#p9966ce8197)" style="fill: #009e73; stroke: #ffffff; stroke-width: 0.45; stroke-linejoin: miter"/>
   </g>
   <g id="patch_63">
    <path d="M 400.3776 188.3424 
L 411.7608 188.3424 
L 411.7608 177.8088 
L 400.3776 177.8088 
z
" clip-path="url(#p9966ce8197)" style="fill: #eceff1; stroke: #ffffff; stroke-width: 0.45; stroke-linejoin: miter"/>
   </g>
   <g id="patch_64">
    <path d="M 415.5552 272.6112 
L 426.9384 272.6112 
L 426.9384 262.0776 
L 415.5552 262.0776 
z
" clip-path="url(#p9966ce8197)" style="fill: #eceff1; stroke: #ffffff; stroke-width: 0.45; stroke-linejoin: miter"/>
   </g>
   <g id="patch_65">
    <path d="M 415.5552 258.5664 
L 426.9384 258.5664 
L 426.9384 248.0328 
L 415.5552 248.0328 
z
" clip-path="url(#p9966ce8197)" style="fill: #eceff1; stroke: #ffffff; stroke-width: 0.45; stroke-linejoin: miter"/>
   </g>
   <g id="patch_66">
    <path d="M 415.5552 244.5216 
L 426.9384 244.5216 
L 426.9384 233.988 
L 415.5552 233.988 
z
" clip-path="url(#p9966ce8197)" style="fill: #eceff1; stroke: #ffffff; stroke-width: 0.45; stroke-linejoin: miter"/>
   </g>
   <g id="patch_67">
    <path d="M 415.5552 230.4768 
L 426.9384 230.4768 
L 426.9384 219.9432 
L 415.5552 219.9432 
z
" clip-path="url(#p9966ce8197)" style="fill: #eceff1; stroke: #ffffff; stroke-width: 0.45; stroke-linejoin: miter"/>
   </g>
   <g id="patch_68">
    <path d="M 415.5552 216.432 
L 426.9384 216.432 
L 426.9384 205.8984 
L 415.5552 205.8984 
z
" clip-path="url(#p9966ce8197)" style="fill: #009e73; stroke: #ffffff; stroke-width: 0.45; stroke-linejoin: miter"/>
   </g>
   <g id="patch_69">
    <path d="M 415.5552 202.3872 
L 426.9384 202.3872 
L 426.9384 191.8536 
L 415.5552 191.8536 
z
" clip-path="url(#p9966ce8197)" style="fill: #eceff1; stroke: #ffffff; stroke-width: 0.45; stroke-linejoin: miter"/>
   </g>
   <g id="patch_70">
    <path d="M 415.5552 188.3424 
L 426.9384 188.3424 
L 426.9384 177.8088 
L 415.5552 177.8088 
z
" clip-path="url(#p9966ce8197)" style="fill: #eceff1; stroke: #ffffff; stroke-width: 0.45; stroke-linejoin: miter"/>
   </g>
   <g id="patch_71">
    <path d="M 430.7328 272.6112 
L 442.116 272.6112 
L 442.116 262.0776 
L 430.7328 262.0776 
z
" clip-path="url(#p9966ce8197)" style="fill: #eceff1; stroke: #ffffff; stroke-width: 0.45; stroke-linejoin: miter"/>
   </g>
   <g id="patch_72">
    <path d="M 430.7328 258.5664 
L 442.116 258.5664 
L 442.116 248.0328 
L 430.7328 248.0328 
z
" clip-path="url(#p9966ce8197)" style="fill: #eceff1; stroke: #ffffff; stroke-width: 0.45; stroke-linejoin: miter"/>
   </g>
   <g id="patch_73">
    <path d="M 430.7328 244.5216 
L 442.116 244.5216 
L 442.116 233.988 
L 430.7328 233.988 
z
" clip-path="url(#p9966ce8197)" style="fill: #eceff1; stroke: #ffffff; stroke-width: 0.45; stroke-linejoin: miter"/>
   </g>
   <g id="patch_74">
    <path d="M 430.7328 230.4768 
L 442.116 230.4768 
L 442.116 219.9432 
L 430.7328 219.9432 
z
" clip-path="url(#p9966ce8197)" style="fill: #009e73; stroke: #ffffff; stroke-width: 0.45; stroke-linejoin: miter"/>
   </g>
   <g id="patch_75">
    <path d="M 430.7328 216.432 
L 442.116 216.432 
L 442.116 205.8984 
L 430.7328 205.8984 
z
" clip-path="url(#p9966ce8197)" style="fill: #eceff1; stroke: #ffffff; stroke-width: 0.45; stroke-linejoin: miter"/>
   </g>
   <g id="patch_76">
    <path d="M 430.7328 202.3872 
L 442.116 202.3872 
L 442.116 191.8536 
L 430.7328 191.8536 
z
" clip-path="url(#p9966ce8197)" style="fill: #eceff1; stroke: #ffffff; stroke-width: 0.45; stroke-linejoin: miter"/>
   </g>
   <g id="patch_77">
    <path d="M 430.7328 188.3424 
L 442.116 188.3424 
L 442.116 177.8088 
L 430.7328 177.8088 
z
" clip-path="url(#p9966ce8197)" style="fill: #eceff1; stroke: #ffffff; stroke-width: 0.45; stroke-linejoin: miter"/>
   </g>
   <g id="patch_78">
    <path d="M 239.21889 212.9208 
Q 263.779426 212.9208 286.3275 212.9208 
" clip-path="url(#p9966ce8197)" style="fill: none; stroke: #1f2933; stroke-width: 1.8; stroke-linecap: round"/>
    <path d="M 281.5275 210.5208 
L 286.3275 212.9208 
L 281.5275 215.3208 
z
" clip-path="url(#p9966ce8197)" style="fill: #1f2933; stroke: #1f2933; stroke-width: 1.8; stroke-linecap: round"/>
   </g>
   <g id="patch_79">
    <path d="M 566.025926 335.897069 
L 712.823674 335.897069 
Q 726.787066 335.897069 726.787066 322.975853 
L 726.787066 102.865747 
Q 726.787066 89.944531 712.823674 89.944531 
L 566.025926 89.944531 
Q 552.062534 89.944531 552.062534 102.865747 
L 552.062534 322.975853 
Q 552.062534 335.897069 566.025926 335.897069 
z
" clip-path="url(#p9966ce8197)" style="fill: #ffffff; stroke: #0072b2; stroke-width: 1.5; stroke-linejoin: miter"/>
   </g>
   <g id="patch_80">
    <path d="M 579.47328 195.3648 
L 590.401152 195.3648 
L 590.401152 185.252544 
L 579.47328 185.252544 
z
" clip-path="url(#p9966ce8197)" style="fill: #009e73; stroke: #ffffff; stroke-width: 0.6; stroke-linejoin: miter"/>
   </g>
   <g id="patch_81">
    <path d="M 597.6864 181.881792 
L 608.614272 181.881792 
L 608.614272 171.769536 
L 597.6864 171.769536 
z
" clip-path="url(#p9966ce8197)" style="fill: #009e73; stroke: #ffffff; stroke-width: 0.6; stroke-linejoin: miter"/>
   </g>
   <g id="patch_82">
    <path d="M 613.471104 190.870464 
L 624.398976 190.870464 
L 624.398976 180.758208 
L 613.471104 180.758208 
z
" clip-path="url(#p9966ce8197)" style="fill: #009e73; stroke: #ffffff; stroke-width: 0.6; stroke-linejoin: miter"/>
   </g>
   <g id="patch_83">
    <path d="M 628.0416 178.51104 
L 638.969472 178.51104 
L 638.969472 168.398784 
L 628.0416 168.398784 
z
" clip-path="url(#p9966ce8197)" style="fill: #009e73; stroke: #ffffff; stroke-width: 0.6; stroke-linejoin: miter"/>
   </g>
   <g id="patch_84">
    <path d="M 646.25472 193.117632 
L 657.182592 193.117632 
L 657.182592 183.005376 
L 646.25472 183.005376 
z
" clip-path="url(#p9966ce8197)" style="fill: #009e73; stroke: #ffffff; stroke-width: 0.6; stroke-linejoin: miter"/>
   </g>
   <g id="patch_85">
    <path d="M 663.253632 183.005376 
L 674.181504 183.005376 
L 674.181504 172.89312 
L 663.253632 172.89312 
z
" clip-path="url(#p9966ce8197)" style="fill: #d55e00; stroke: #ffffff; stroke-width: 0.6; stroke-linejoin: miter"/>
   </g>
   <g id="patch_86">
    <path d="M 590.401152 211.094976 
L 601.329024 211.094976 
L 601.329024 200.98272 
L 590.401152 200.98272 
z
" clip-path="url(#p9966ce8197)" style="fill: #009e73; stroke: #ffffff; stroke-width: 0.6; stroke-linejoin: miter"/>
   </g>
   <g id="patch_87">
    <path d="M 609.82848 207.724224 
L 620.756352 207.724224 
L 620.756352 197.611968 
L 609.82848 197.611968 
z
" clip-path="url(#p9966ce8197)" style="fill: #009e73; stroke: #ffffff; stroke-width: 0.6; stroke-linejoin: miter"/>
   </g>
   <g id="patch_88">
    <path d="M 630.470016 206.60064 
L 641.397888 206.60064 
L 641.397888 196.488384 
L 630.470016 196.488384 
z
" clip-path="url(#p9966ce8197)" style="fill: #009e73; stroke: #ffffff; stroke-width: 0.6; stroke-linejoin: miter"/>
   </g>
   <g id="patch_89">
    <path d="M 651.111552 212.21856 
L 662.039424 212.21856 
L 662.039424 202.106304 
L 651.111552 202.106304 
z
" clip-path="url(#p9966ce8197)" style="fill: #d55e00; stroke: #ffffff; stroke-width: 0.6; stroke-linejoin: miter"/>
   </g>
   <g id="patch_90">
    <path d="M 670.53888 202.106304 
L 681.466752 202.106304 
L 681.466752 191.994048 
L 670.53888 191.994048 
z
" clip-path="url(#p9966ce8197)" style="fill: #009e73; stroke: #ffffff; stroke-width: 0.6; stroke-linejoin: miter"/>
   </g>
   <g id="patch_91">
    <path d="M 685.109376 175.140288 
L 696.037248 175.140288 
L 696.037248 165.028032 
L 685.109376 165.028032 
z
" clip-path="url(#p9966ce8197)" style="fill: #009e73; stroke: #ffffff; stroke-width: 0.6; stroke-linejoin: miter"/>
   </g>
   <g id="patch_92">
    <path d="M 698.465664 190.870464 
L 709.393536 190.870464 
L 709.393536 180.758208 
L 698.465664 180.758208 
z
" clip-path="url(#p9966ce8197)" style="fill: #009e73; stroke: #ffffff; stroke-width: 0.6; stroke-linejoin: miter"/>
   </g>
   <g id="patch_93">
    <path d="M 691.180416 206.60064 
L 702.108288 206.60064 
L 702.108288 196.488384 
L 691.180416 196.488384 
z
" clip-path="url(#p9966ce8197)" style="fill: #009e73; stroke: #ffffff; stroke-width: 0.6; stroke-linejoin: miter"/>
   </g>
   <g id="patch_94">
    <path d="M 570.973824 209.971392 
C 573.87193 209.971392 576.651726 208.905901 578.700996 207.009581 
C 580.750266 205.113261 581.901696 202.540938 581.901696 199.859136 
C 581.901696 197.177334 580.750266 194.605011 578.700996 192.708691 
C 576.651726 190.812371 573.87193 189.74688 570.973824 189.74688 
C 568.075718 189.74688 565.295922 190.812371 563.246652 192.708691 
C 561.197382 194.605011 560.045952 197.177334 560.045952 199.859136 
C 560.045952 202.540938 561.197382 205.113261 563.246652 207.009581 
C 565.295922 208.905901 568.075718 209.971392 570.973824 209.971392 
z
" clip-path="url(#p9966ce8197)" style="fill: #0072b2; stroke: #ffffff; stroke-width: 0.6; stroke-linejoin: miter"/>
   </g>
   <g id="patch_95">
    <path d="M 579.382214 307.807469 
L 699.467386 307.807469 
Q 704.020666 307.807469 704.020666 303.594029 
L 704.020666 259.184371 
Q 704.020666 254.970931 699.467386 254.970931 
L 579.382214 254.970931 
Q 574.828934 254.970931 574.828934 259.184371 
L 574.828934 303.594029 
Q 574.828934 307.807469 579.382214 307.807469 
z
" clip-path="url(#p9966ce8197)" style="fill: #f7fbfe; stroke: #0072b2; stroke-width: 1.4; stroke-linejoin: miter"/>
   </g>
   <g id="patch_96">
    <path d="M 489.646048 212.9208 
Q 518.001017 212.9208 544.343525 212.9208 
" clip-path="url(#p9966ce8197)" style="fill: none; stroke: #1f2933; stroke-width: 1.8; stroke-linecap: round"/>
    <path d="M 539.543525 210.5208 
L 544.343525 212.9208 
L 539.543525 215.3208 
z
" clip-path="url(#p9966ce8197)" style="fill: #1f2933; stroke: #1f2933; stroke-width: 1.8; stroke-linecap: round"/>
   </g>
   <g id="text_1">
    <text style="fill: #1f2933; font: 700 14px 'DejaVu Sans'; text-anchor: start" x="20.9376" y="30.635638" transform="rotate(-0 20.9376 30.635638)">D. Sparse-native operator scheduling and space competition</text>
   </g>
   <g id="text_2">
    <text style="fill: #7b858f; font: 8.5px 'DejaVu Sans'; text-anchor: start" x="20.9376" y="46.728669" transform="rotate(-0 20.9376 46.728669)">Multiple grammar handles propose tokens on one occupancy lattice; ownership is resolved before decoding.</text>
   </g>
   <g id="text_3">
    <text style="fill: #009e73; font: 700 10px 'DejaVu Sans'; text-anchor: start" x="58.8816" y="110.344175" transform="rotate(-0 58.8816 110.344175)">active handles</text>
   </g>
   <g id="text_4">
    <text style="fill: #0072b2; font: 8px 'DejaVu Sans'; text-anchor: start" x="119.592" y="190.3274" transform="rotate(-0 119.592 190.3274)">a_1</text>
   </g>
   <g id="text_5">
    <text style="fill: #009e73; font: 8px 'DejaVu Sans'; text-anchor: start" x="172.7136" y="239.524825" transform="rotate(-0 172.7136 239.524825)">a_2</text>
   </g>
   <g id="text_6">
    <text style="fill: #cc79a7; font: 8px 'DejaVu Sans'; text-anchor: start" x="134.7696" y="288.681625" transform="rotate(-0 134.7696 288.681625)">a_3</text>
   </g>
   <g id="text_7">
    <text style="fill: #d55e00; font: 700 10px 'DejaVu Sans'; text-anchor: start" x="309.312" y="110.344175" transform="rotate(-0 309.312 110.344175)">frontier ownership map</text>
   </g>
   <g id="text_8">
    <text style="fill: #7b858f; font: 7px 'DejaVu Sans'; text-anchor: start" x="324.4896" y="301.227882" transform="rotate(-0 324.4896 301.227882)">green accepted; red rejected collisions; gray occupied</text>
   </g>
   <g id="text_9">
    <text style="fill: #0072b2; font: 700 10px 'DejaVu Sans'; text-anchor: start" x="567.3312" y="110.344175" transform="rotate(-0 567.3312 110.344175)">connected next support</text>
   </g>
   <g id="text_10">
    <text style="fill: #0072b2; font: 7.6px 'DejaVu Sans'" transform="translate(625.208644 275.264728)">metrics</text>
    <text style="fill: #0072b2; font: 7.6px 'DejaVu Sans'" transform="translate(610.747269 283.486325)">LCR, coverage,</text>
    <text style="fill: #0072b2; font: 7.6px 'DejaVu Sans'" transform="translate(603.152613 291.707922)">collision reject rate</text>
   </g>
  </g>
 </g>
 <defs>
  <clipPath id="p9966ce8197">
   <rect x="5.76" y="5.76" width="758.88" height="421.344"/>
  </clipPath>
 </defs>
</svg>
